<?xml version="1.0" standalone="no"?>
<!DOCTYPE svg PUBLIC "-//W3C//DTD SVG 20010904//EN"
 "http://www.w3.org/TR/2001/REC-SVG-20010904/DTD/svg10.dtd">
<svg version="1.0" xmlns="http://www.w3.org/2000/svg"
 width="260.000000pt" height="260.000000pt" viewBox="0 0 260.000000 260.000000"
 preserveAspectRatio="xMidYMid meet">
<metadata>
Created by potrace 1.11, written by Peter Selinger 2001-2013
</metadata>
<g transform="translate(0.000000,260.000000) scale(0.100000,-0.100000)"
fill="#000000" stroke="none">
<path d="M900 2450 c-184 -82 -362 -161 -395 -176 -33 -15 -100 -45 -150 -67
-116 -51 -139 -68 -172 -125 l-28 -47 1 -275 c0 -249 8 -471 19 -510 2 -8 6
-42 10 -75 18 -186 66 -355 126 -444 98 -147 358 -366 704 -593 261 -171 296
-174 495 -50 382 240 675 477 786 638 60 87 108 270 129 494 4 41 9 91 11 110
2 19 6 175 9 345 5 262 4 318 -9 361 -30 98 -40 104 -576 341 -461 204 -488
215 -555 218 l-70 4 -335 -149z m671 -83 c129 -57 254 -113 279 -124 25 -11
129 -58 233 -103 229 -101 236 -108 238 -218 4 -251 -3 -521 -16 -647 -37
-357 -74 -457 -224 -605 -110 -108 -302 -256 -498 -383 -276 -180 -282 -182
-356 -143 -104 56 -458 301 -573 398 -218 183 -278 264 -318 423 -22 88 -35
175 -51 335 -16 166 -25 591 -15 673 5 38 13 56 32 70 23 17 165 82 523 239
88 38 183 80 210 93 28 12 75 33 105 46 30 13 66 29 80 36 59 30 105 18 351
-90z"/>
<path d="M826 2033 c-148 -39 -268 -168 -307 -327 -40 -170 11 -458 138 -765
111 -269 234 -426 317 -405 45 11 64 46 111 209 84 289 133 385 195 385 39 0
82 -46 110 -117 12 -32 26 -67 30 -78 5 -11 27 -85 50 -165 48 -172 56 -193
80 -215 66 -60 157 4 259 184 108 189 207 447 237 616 3 22 9 49 11 60 12 56
14 206 3 258 -14 72 -67 179 -116 236 -73 85 -192 141 -299 141 -72 0 -144
-23 -258 -83 l-98 -52 -78 43 c-164 88 -263 108 -385 75z m189 -98 c45 -12
121 -52 205 -109 104 -71 182 -96 290 -92 47 2 92 5 100 8 8 2 30 8 48 12 56
13 35 26 -45 27 -104 2 -115 3 -184 24 -32 10 -59 23 -59 30 0 6 46 33 102 60
87 42 110 49 162 49 91 0 160 -29 226 -94 108 -106 140 -239 104 -435 -38
-216 -161 -534 -265 -686 -50 -74 -69 -93 -81 -81 -6 6 -30 79 -55 163 -62
214 -59 206 -94 275 -54 110 -116 155 -203 147 -106 -9 -167 -110 -257 -423
-23 -80 -46 -153 -51 -163 -9 -18 -10 -18 -28 1 -32 34 -91 131 -141 232 -99
199 -157 378 -183 565 -16 119 -12 199 14 266 70 176 228 265 395 224z"/>
</g>
</svg>
